<?xml version="1.0" encoding="UTF-8" standalone="no"?>
<!-- Created with Inkscape (http://www.inkscape.org/) -->

<svg
   width="139.22618mm"
   height="28.54228mm"
   viewBox="0 0 139.22618 28.54228"
   version="1.1"
   id="svg1"
   inkscape:version="1.3 (0e150ed6c4, 2023-07-21)"
   sodipodi:docname="drawing-1.svg"
   xmlns:inkscape="http://www.inkscape.org/namespaces/inkscape"
   xmlns:sodipodi="http://sodipodi.sourceforge.net/DTD/sodipodi-0.dtd"
   xmlns="http://www.w3.org/2000/svg"
   xmlns:svg="http://www.w3.org/2000/svg">
  <sodipodi:namedview
     id="namedview1"
     pagecolor="#ffffff"
     bordercolor="#000000"
     borderopacity="0.25"
     inkscape:showpageshadow="2"
     inkscape:pageopacity="0.0"
     inkscape:pagecheckerboard="0"
     inkscape:deskcolor="#d1d1d1"
     inkscape:document-units="mm"
     showguides="false"
     inkscape:zoom="0.73139029"
     inkscape:cx="678.84412"
     inkscape:cy="29.39607"
     inkscape:window-width="1920"
     inkscape:window-height="1017"
     inkscape:window-x="-8"
     inkscape:window-y="-8"
     inkscape:window-maximized="1"
     inkscape:current-layer="layer1" />
  <defs
     id="defs1">
    <inkscape:perspective
       sodipodi:type="inkscape:persp3d"
       inkscape:vp_x="-51.150571 : -219.76463 : 1"
       inkscape:vp_y="0 : 1198.709 : 0"
       inkscape:vp_z="200.57833 : -219.76463 : 1"
       inkscape:persp3d-origin="74.71388 : -279.10072 : 1"
       id="perspective1" />
  </defs>
  <g
     inkscape:label="Layer 1"
     inkscape:groupmode="layer"
     id="layer1"
     transform="translate(-32.407767,-138.96351)">
    <text
       xml:space="preserve"
       style="font-size:8.46667px;fill:#000000;stroke-width:0.264583"
       x="-30.387333"
       y="104.18513"
       id="text8"><tspan
         sodipodi:role="line"
         id="tspan8"
         style="font-size:8.46667px;stroke-width:0.264583"
         x="-30.387333"
         y="104.18513" /></text>
    <path
       style="font-weight:900;font-size:44.1148px;font-family:'DM Sans';-inkscape-font-specification:'DM Sans Heavy';fill:#f9f9f9;stroke-width:1.37859"
       d="m 160.38468,167.50579 q -3.44096,0 -6.08784,-1.41168 -2.60278,-1.41167 -4.10268,-3.92621 -1.45579,-2.55866 -1.45579,-5.86727 0,-3.39684 1.45579,-6.04373 1.45579,-2.64689 4.05856,-4.14679 2.60277,-1.54402 6.08784,-1.54402 3.30861,0 5.82316,1.41168 2.55866,1.41167 4.01444,3.8821 1.45579,2.47043 1.45579,5.69081 0,0.44114 -0.0441,1.01464 0,0.52937 -0.0441,1.10287 h -18.13118 v -3.88211 h 11.46985 q -0.13235,-1.76459 -1.41168,-2.86746 -1.23521,-1.10287 -3.08803,-1.10287 -1.41167,0 -2.60277,0.66172 -1.14699,0.61761 -1.85283,1.94106 -0.66172,1.27933 -0.66172,3.30861 v 1.27933 q 0,1.4999 0.61761,2.691 0.61761,1.14698 1.76459,1.8087 1.14699,0.61761 2.64689,0.61761 1.41167,0 2.3822,-0.61761 1.01464,-0.6176 1.54402,-1.58813 h 6.74956 q -0.61761,2.11751 -2.11751,3.83799 -1.4999,1.72048 -3.70564,2.73512 -2.16163,1.01464 -4.7644,1.01464 z"
       id="path25" />
    <path
       style="font-weight:900;font-size:44.1148px;font-family:'DM Sans';-inkscape-font-specification:'DM Sans Heavy';fill:#f9f9f9;stroke-width:1.37859"
       d="m 123.76943,166.97641 v -21.88094 h 5.60257 l 0.5735,3.61741 h 0.17646 q 1.01464,-1.98516 2.82334,-3.04392 1.80871,-1.10287 4.58794,-1.10287 2.77924,0 4.67617,1.23522 1.89694,1.1911 2.86746,3.48507 1.01464,2.24985 1.01464,5.55846 v 12.13157 h -6.61722 v -11.51396 q 0,-2.55866 -1.01464,-3.92622 -0.97052,-1.41167 -3.26449,-1.41167 -1.41168,0 -2.51455,0.66172 -1.05875,0.66172 -1.67636,1.94105 -0.6176,1.23521 -0.6176,2.99981 v 11.24927 z"
       id="path24" />
    <path
       style="font-weight:900;font-size:44.1148px;font-family:'DM Sans';-inkscape-font-specification:'DM Sans Heavy';fill:#f9f9f9;stroke-width:1.37859"
       d="m 106.43233,167.50579 q -2.60277,0 -4.27913,-0.8823 -1.67637,-0.88229 -2.470433,-2.33808 -0.749952,-1.49991 -0.749952,-3.30861 0,-1.98517 0.970526,-3.48507 1.014639,-1.54402 3.132149,-2.42632 2.11751,-0.88229 5.42612,-0.88229 h 5.38201 q 0,-1.49991 -0.39704,-2.42632 -0.39703,-0.97052 -1.27932,-1.41167 -0.83819,-0.48526 -2.24986,-0.48526 -1.54402,0 -2.691,0.66172 -1.10287,0.66172 -1.36756,2.0734 h -6.352532 q 0.220574,-2.42632 1.588132,-4.19091 1.36756,-1.80871 3.61741,-2.82335 2.29397,-1.01464 5.24967,-1.01464 3.17626,0 5.51434,1.01464 2.3822,1.01464 3.66153,3.04392 1.32345,1.98517 1.32345,4.89675 v 13.45501 h -5.47024 l -0.70583,-3.30861 h -0.17646 q -0.70584,0.97053 -1.54402,1.72048 -0.83818,0.70583 -1.80871,1.1911 -0.92641,0.44114 -2.02928,0.66172 -1.10287,0.26469 -2.29397,0.26469 z m 2.33809,-5.02909 q 1.10287,0 1.89693,-0.35292 0.79407,-0.35292 1.36756,-0.92641 0.61761,-0.61761 0.97053,-1.41167 0.35291,-0.79407 0.52937,-1.72048 v 0 h -4.27913 q -1.14699,0 -1.89694,0.3088 -0.70583,0.26469 -1.05875,0.79407 -0.35292,0.48526 -0.35292,1.1911 0,0.70584 0.35292,1.1911 0.35292,0.44115 1.01464,0.70584 0.66172,0.22057 1.45579,0.22057 z"
       id="path23" />
    <path
       style="font-weight:900;font-size:44.1148px;font-family:'DM Sans';-inkscape-font-specification:'DM Sans Heavy';fill:#f9f9f9;stroke-width:1.37859"
       d="m 93.242038,166.97641 q -2.426314,0 -4.279136,-0.74995 -1.808706,-0.79407 -2.867461,-2.55866 -1.014641,-1.76459 -1.014641,-4.80851 v -8.38182 h -3.705643 v -5.382 H 85.0808 l 0.749952,-6.13196 h 5.911383 v 6.13196 h 5.602579 v 5.382 H 91.69802 v 8.47005 q 0,1.36756 0.617607,1.94105 0.617607,0.52938 2.073396,0.52938 H 97.3006 v 5.55846 z"
       id="path22" />
    <path
       style="font-weight:900;font-size:44.1148px;font-family:'DM Sans';-inkscape-font-specification:'DM Sans Heavy';fill:#f9f9f9;stroke-width:1.37859"
       d="m 68.934785,167.50579 q -3.485069,0 -6.131957,-1.45579 -2.602773,-1.4999 -4.058562,-4.05856 -1.455788,-2.60278 -1.455788,-5.9555 0,-3.35273 1.455788,-5.91138 1.499903,-2.55866 4.102677,-4.05857 2.646888,-1.4999 6.087842,-1.4999 4.367365,0 7.323057,2.29397 2.955691,2.24986 3.793872,6.2643 h -7.058367 q -0.352919,-1.41167 -1.455789,-2.20574 -1.10287,-0.79406 -2.646888,-0.79406 -1.411673,0 -2.514543,0.74995 -1.10287,0.70583 -1.720478,2.02928 -0.617607,1.32344 -0.617607,3.13215 0,1.32344 0.352919,2.42631 0.352918,1.05876 0.970525,1.85283 0.661722,0.74995 1.544018,1.14698 0.882296,0.39703 1.985166,0.39703 1.014641,0 1.852822,-0.3088 0.838181,-0.35292 1.411673,-1.01464 0.617608,-0.66172 0.838182,-1.58813 h 7.058367 q -0.838181,3.92621 -3.837987,6.2643 -2.955692,2.29397 -7.278942,2.29397 z"
       id="path21" />
    <path
       style="font-weight:900;font-size:44.1148px;font-family:'DM Sans';-inkscape-font-specification:'DM Sans Heavy';fill:#f9f9f9;stroke-width:1.37859"
       d="m 43.745271,167.50579 q -3.176266,0 -5.779039,-1.45579 -2.558658,-1.4999 -4.058562,-4.05856 -1.499903,-2.60278 -1.499903,-5.9555 0,-3.35273 1.499903,-5.9555 1.499904,-2.60277 4.058562,-4.05856 2.602773,-1.45579 5.779039,-1.45579 3.22038,0 5.779039,1.45579 2.558658,1.45579 4.058561,4.05856 1.499903,2.60277 1.499903,5.9555 0,3.35272 -1.499903,5.9555 -1.499903,2.55866 -4.102676,4.05856 -2.558659,1.45579 -5.734924,1.45579 z m 0,-5.6467 q 1.279329,0 2.293969,-0.6176 1.058756,-0.66173 1.676363,-1.94106 0.617607,-1.32344 0.617607,-3.26449 0,-1.94105 -0.617607,-3.22038 -0.617607,-1.32344 -1.676363,-1.94105 -1.01464,-0.66172 -2.249854,-0.66172 -1.27933,0 -2.338085,0.66172 -1.058755,0.61761 -1.676362,1.94105 -0.617607,1.27933 -0.617607,3.22038 0,1.94105 0.617607,3.26449 0.617607,1.27933 1.676362,1.94106 1.058755,0.6176 2.29397,0.6176 z"
       id="text9" />
  </g>
</svg>
