<?xml version="1.0" encoding="UTF-8" standalone="no"?>
<!-- Created with Inkscape (http://www.inkscape.org/) -->

<svg
   width="125.73009mm"
   height="36.064651mm"
   viewBox="0 0 125.73009 36.064651"
   version="1.1"
   id="svg1"
   inkscape:version="1.3.2 (091e20e, 2023-11-25, custom)"
   sodipodi:docname="octane-bg.svg"
   xmlns:inkscape="http://www.inkscape.org/namespaces/inkscape"
   xmlns:sodipodi="http://sodipodi.sourceforge.net/DTD/sodipodi-0.dtd"
   xmlns="http://www.w3.org/2000/svg"
   xmlns:svg="http://www.w3.org/2000/svg">
  <sodipodi:namedview
     id="namedview1"
     pagecolor="#ffffff"
     bordercolor="#000000"
     borderopacity="0.25"
     inkscape:showpageshadow="2"
     inkscape:pageopacity="0.0"
     inkscape:pagecheckerboard="0"
     inkscape:deskcolor="#d1d1d1"
     inkscape:document-units="mm"
     inkscape:zoom="0.73139029"
     inkscape:cx="213.97604"
     inkscape:cy="95.024504"
     inkscape:window-width="1920"
     inkscape:window-height="1017"
     inkscape:window-x="-8"
     inkscape:window-y="-8"
     inkscape:window-maximized="1"
     inkscape:current-layer="layer1" />
  <defs
     id="defs1" />
  <g
     inkscape:label="Layer 1"
     inkscape:groupmode="layer"
     id="layer1"
     transform="translate(-43.088233,-123.31599)">
    <path
       style="font-size:35.4269px;font-family:ZARAUTZ;-inkscape-font-specification:ZARAUTZ;fill:#535d6c;stroke-width:0.474465"
       d="m 146.21595,148.07945 q 0,-4.71177 3.29471,-7.97105 3.2947,-3.2947 8.00647,-3.2947 4.71178,0 8.00648,3.2947 3.29471,3.25928 3.29471,7.97105 v 0.85025 q 0,0.14171 -0.0354,0.28342 l -20.19333,0.0354 q 0.95652,4.03867 3.40098,5.91629 2.44445,1.87763 5.52659,1.87763 3.50727,0 5.66831,-1.98391 l 0.95652,0.7794 q 0.3897,0.31884 0.88568,0.70853 -3.11757,2.83416 -7.51051,2.83416 -4.7472,0 -8.0419,-3.29471 -3.25928,-3.25927 -3.25928,-8.00648 z m 20.08706,-1.94848 q -0.74397,-3.08214 -3.18843,-5.06604 -2.44445,-1.98391 -5.59745,-1.98391 -5.06604,0 -7.68763,4.42836 -0.88567,1.48793 -1.27537,3.50727 h 17.00491 z"
       id="path5" />
    <path
       style="font-size:35.4269px;font-family:ZARAUTZ;-inkscape-font-specification:ZARAUTZ;fill:#535d6c;stroke-width:0.474465"
       d="m 141.57502,159.38064 0.1417,-11.23033 q 0.0709,-3.6844 -2.62159,-6.37684 -2.69244,-2.69245 -6.37684,-2.69245 -3.71982,0 -6.34141,2.65702 -2.62159,2.62159 -2.62159,6.34141 v 11.30119 h -2.33818 v -22.49609 h 2.30275 v 4.18038 q 4.42836,-4.25123 8.99843,-4.25123 4.71178,0 7.97105,3.2947 3.29471,3.25928 3.29471,7.97105 v 11.30119 z"
       id="path4" />
    <path
       style="font-size:35.4269px;font-family:ZARAUTZ;-inkscape-font-specification:ZARAUTZ;fill:#535d6c;stroke-width:0.474465"
       d="m 96.724557,148.07945 q 0,-4.71177 3.294703,-7.97105 3.2947,-3.2947 8.00648,-3.2947 4.67635,0 7.97105,3.18842 3.2947,3.18842 3.2947,7.86477 v 11.51375 h -2.23189 v -4.28666 q -4.49922,4.28666 -9.03386,4.28666 -4.74721,0 -8.041913,-3.29471 -3.25927,-3.25927 -3.25927,-8.00648 z m 2.33817,0 q 0,3.79068 2.586173,6.37685 2.58616,2.58616 6.37684,2.58616 3.71982,0 6.34141,-2.62159 2.65702,-2.62159 2.65702,-6.34142 0,-3.71982 -2.65702,-6.34141 -2.62159,-2.65702 -6.34141,-2.65702 -3.71983,0 -6.34142,2.65702 -2.621593,2.62159 -2.621593,6.34141 z"
       id="path3" />
    <path
       id="path2"
       style="font-size:35.4269px;font-family:ZARAUTZ;-inkscape-font-specification:ZARAUTZ;fill:#535d6c;stroke-width:0.474465"
       d="m 91.906535,123.31599 v 9.80147 h -4.581116 v 2.02778 h 4.581116 v 24.23521 h 2.338358 v -24.23521 h 21.512387 v -2.02778 H 94.244893 v -9.80147 z" />
    <path
       id="path6"
       style="font-size:35.4269px;font-family:ZARAUTZ;-inkscape-font-specification:ZARAUTZ;fill:#535d6c;stroke-width:0.474465"
       d="m 78.479567,136.8139 c -3.141182,0 -5.809764,1.09791 -8.00623,3.29437 -2.196466,2.17285 -3.294889,4.82991 -3.294889,7.97109 0,3.1648 1.086385,5.8339 3.259232,8.00675 2.196466,2.19647 4.877087,3.29437 8.041887,3.29437 3.141182,0 5.798242,-1.0979 7.971089,-3.29437 0.72782,-0.72782 1.332361,-1.50888 1.819011,-2.34043 h -2.8236 c -0.194354,0.2308 -0.402532,0.45614 -0.624768,0.67541 -1.747725,1.74773 -3.861851,2.62155 -6.341732,2.62155 -2.527116,0 -4.652764,-0.8623 -6.376872,-2.58641 -1.724107,-1.72411 -2.585889,-3.84975 -2.585889,-6.37687 0,-2.47988 0.873821,-4.59349 2.621546,-6.34121 1.747725,-1.77135 3.861335,-2.65721 6.341215,-2.65721 2.479881,0 4.594007,0.88586 6.341732,2.65721 0.373209,0.36823 0.704328,0.75371 0.998905,1.15445 h 2.706811 c -0.52377,-1.00225 -1.214074,-1.93132 -2.076359,-2.78433 -2.172847,-2.19646 -4.829907,-3.29437 -7.971089,-3.29437 z" />
    <path
       style="font-size:35.4269px;font-family:ZARAUTZ;-inkscape-font-specification:ZARAUTZ;fill:#535d6c;stroke-width:0.474465"
       d="m 43.088233,148.07945 q 0,-4.71177 3.294701,-7.97105 3.294702,-3.2947 8.00648,-3.2947 4.711777,0 7.971052,3.2947 3.294701,3.25928 3.294701,7.97105 0,4.71178 -3.294701,8.00648 -3.259275,3.29471 -7.971052,3.29471 -4.747205,0 -8.041906,-3.29471 -3.259275,-3.25927 -3.259275,-8.00648 z m 2.338175,0 q 0,3.79068 2.586164,6.37685 2.586163,2.58616 6.376842,2.58616 3.719824,0 6.341415,-2.62159 2.657017,-2.62159 2.657017,-6.34142 0,-3.71982 -2.657017,-6.34141 -2.621591,-2.65702 -6.341415,-2.65702 -3.719825,0 -6.341415,2.65702 -2.621591,2.62159 -2.621591,6.34141 z"
       id="text1" />
    <text
       xml:space="preserve"
       style="font-style:normal;font-variant:normal;font-weight:normal;font-stretch:normal;font-size:19.7556px;font-family:ZARAUTZ;-inkscape-font-specification:ZARAUTZ;fill:#535d6c;stroke-width:0.264583"
       x="41.963459"
       y="117.20828"
       id="text6"><tspan
         sodipodi:role="line"
         id="tspan6"
         style="stroke-width:0.264583"
         x="41.963459"
         y="117.20828" /></text>
  </g>
</svg>
